<svg width="72" height="72" viewBox="0 0 72 72" fill="none" xmlns="http://www.w3.org/2000/svg">
<path d="M8.82295 0H7.49995C6.78305 0 6.075 0.101953 5.39395 0.299953C4.599 0.533953 4.14295 1.368 4.374 2.16295C4.56595 2.817 5.166 3.24 5.814 3.24C5.95505 3.24 6.09595 3.222 6.237 3.17995C6.64495 3.06 7.06795 2.99995 7.49995 2.99995H8.82295C9.65391 2.99995 10.323 2.32791 10.323 1.49991C10.323 0.671906 9.65095 0 8.82295 0Z" fill="black"/>
<path fill-rule="evenodd" clip-rule="evenodd" d="M50.0576 27H64.5C68.634 27 72 30.366 72 34.5V64.5C72 68.634 68.634 72 64.4999 72H34.5C30.366 72 27 68.634 27 64.4999V52.5L27 52.4956C25.1796 51.1257 23.9997 48.9474 23.9996 46.5V43.5416C23.9775 44.3504 23.3142 45 22.5001 45H21C20.172 45 19.5 44.3281 19.5 43.5001C19.5 42.6721 20.172 42.0001 21 42.0001H22.5001C23.3142 42.0001 23.9775 42.6496 23.9996 43.4584V41.121L22.6556 39.777C21.7707 38.895 21.2847 37.716 21.2847 36.465C21.2847 35.214 21.7707 34.038 22.6556 33.153C23.3876 32.4209 24.3206 31.9619 25.3316 31.824C25.2416 30.519 25.6945 29.184 26.6906 28.188C27.7316 27.1471 29.2256 26.6611 30.6566 26.862C30.8276 25.9741 31.2537 25.125 31.9407 24.4381C33.2007 23.1781 35.1566 22.7551 36.7917 23.325C37.0108 22.635 37.3947 21.984 37.9407 21.438C39.1067 20.272 40.742 19.8514 42.2467 20.176C42.5151 19.7689 42.9764 19.5001 43.5 19.5001C44.328 19.5001 45.0001 20.172 45.0001 21V21.8763L49.2118 26.088C49.5065 26.383 49.7885 26.6872 50.0576 27ZM52.1083 30.0001C53.3442 32.3295 53.9998 34.94 53.9998 37.6499C53.9998 46.665 46.6648 54 37.6498 54H31.4998C30.9864 54 30.4847 53.9481 30 53.8492V64.5C30 66.9811 32.0189 69 34.5 69H64.5C66.9811 69 69 66.9811 69 64.5V34.5001C69 32.019 66.9811 30.0001 64.5 30.0001H52.1083ZM37.6498 51H31.4998C29.0188 51 26.9998 48.9811 26.9998 46.5V44.1211L30.4408 47.562C31.0258 48.147 31.9768 48.147 32.5618 47.562C32.8528 47.268 32.9999 46.8841 32.9999 46.5C32.9999 46.116 32.8529 45.7321 32.5618 45.438L24.7768 37.653C24.4589 37.338 24.2848 36.9121 24.2848 36.465C24.2848 36.018 24.4587 35.595 24.7768 35.277C25.4129 34.641 26.5199 34.641 27.1558 35.277L30.4408 38.562C31.0258 39.147 31.9768 39.147 32.5618 38.562C32.8528 38.268 32.9999 37.8841 32.9999 37.5C32.9999 37.116 32.8529 36.7321 32.5618 36.441L28.8118 32.6909C28.1548 32.0339 28.1548 30.969 28.8118 30.312C29.4478 29.6759 30.5548 29.6759 31.1907 30.312L33.4407 32.562C34.0257 33.147 34.9768 33.147 35.5618 32.562C35.8527 32.2679 35.9998 31.884 35.9998 31.5C35.9998 31.1159 35.8529 30.732 35.5618 30.4409L34.0617 28.9409C33.4047 28.2839 33.4047 27.2189 34.0617 26.5619C34.6978 25.9259 35.8048 25.9259 36.4407 26.5619L37.9407 28.062C38.5257 28.647 39.4768 28.647 40.0618 28.062C40.3527 27.7679 40.4998 27.384 40.4998 27C40.4998 26.6159 40.3529 26.232 40.0588 25.938C39.7409 25.623 39.5668 25.2 39.5668 24.75C39.5668 24.3 39.7438 23.877 40.0618 23.562C40.7188 22.905 41.7837 22.905 42.4407 23.562L47.0908 28.212C49.6108 30.732 50.9997 34.0861 50.9997 37.6501C50.9999 45.0119 45.0118 51 37.6498 51Z" fill="black"/>
<path d="M2.99995 33.138V36.171C2.99995 36.999 2.32805 37.671 1.50005 37.671C0.672047 37.671 0 36.999 0 36.171V33.138C0 32.31 0.671906 31.638 1.49991 31.638C2.32791 31.638 2.99995 32.31 2.99995 33.138Z" fill="black"/>
<path d="M1.50005 28.572C2.32805 28.572 3.00009 27.9 3.00009 27.072V24.039C3.00009 23.211 2.32805 22.539 1.50005 22.539C0.672047 22.539 0 23.211 0 24.039V27.072C0 27.9 0.672047 28.572 1.50005 28.572Z" fill="black"/>
<path d="M3.00009 8.87695C3.00009 9.70495 2.32805 10.377 1.50005 10.377C0.672047 10.377 0 9.70495 0 8.87695V7.49995C0 6.81005 0.0960469 6.12295 0.282094 5.45991C0.507094 4.65891 1.34114 4.18795 2.13314 4.42491C2.93119 4.64991 3.39314 5.47791 3.16814 6.27595C3.05705 6.67195 3.00009 7.083 3.00009 7.49995V8.87695Z" fill="black"/>
<path d="M1.50005 19.476C2.32805 19.476 3.00009 18.804 3.00009 17.976V14.943C3.00009 14.115 2.32805 13.4429 1.50005 13.4429C0.672047 13.4429 0 14.115 0 14.943V17.976C0 18.804 0.672047 19.476 1.50005 19.476Z" fill="black"/>
<path d="M4.33209 40.6921C4.87209 41.229 5.544 41.622 6.27005 41.829C7.06795 42.054 7.53005 42.885 7.30209 43.6832C7.11605 44.3431 6.51305 44.7722 5.86209 44.7722C5.72709 44.7722 5.589 44.7542 5.45105 44.7152C4.23605 44.3701 3.11709 43.7162 2.21709 42.8192C1.629 42.2371 1.62605 41.2861 2.21105 40.6981C2.79605 40.1131 3.74709 40.1071 4.33209 40.6921Z" fill="black"/>
<path d="M43.257 7.308C43.3949 7.308 43.5359 7.29 43.677 7.245C44.472 7.011 44.931 6.18005 44.697 5.38495C44.343 4.17291 43.677 3.06 42.7739 2.16591C42.186 1.58386 41.2349 1.58695 40.6529 2.17786C40.0708 2.76581 40.0769 3.71686 40.6648 4.29891C41.2048 4.83891 41.6069 5.50491 41.8168 6.22786C42.009 6.88205 42.606 7.308 43.257 7.308Z" fill="black"/>
<path d="M33.084 0H36.117C36.945 0 37.617 0.672047 37.617 1.50005C37.617 2.32805 36.945 3.00009 36.117 3.00009H33.084C32.256 3.00009 31.584 2.32805 31.584 1.50005C31.584 0.672047 32.256 0 33.084 0Z" fill="black"/>
<path d="M14.937 42H11.904C11.076 42 10.404 42.6721 10.404 43.5001C10.404 44.3281 11.076 45 11.904 45H14.937C15.765 45 16.4371 44.328 16.4371 43.5C16.4371 42.672 15.765 42 14.937 42Z" fill="black"/>
<path d="M41.9999 11.85C41.9999 11.022 42.672 10.35 43.5 10.35C44.3279 10.35 45 11.019 45 11.85V14.883C45 15.711 44.3279 16.3831 43.5 16.3831C42.672 16.3831 41.9999 15.711 41.9999 14.883V11.85Z" fill="black"/>
<path d="M27.021 0H23.988C23.157 0 22.4879 0.672047 22.4879 1.50005C22.4879 2.32805 23.16 3.00009 23.988 3.00009H27.018C27.849 3.00009 28.521 2.32805 28.521 1.50005C28.521 0.672047 27.849 0 27.021 0Z" fill="black"/>
<path d="M14.889 0H17.922C18.75 0 19.422 0.672047 19.422 1.50005C19.422 2.32805 18.75 3.00009 17.922 3.00009H14.889C14.061 3.00009 13.3889 2.32805 13.3889 1.50005C13.3889 0.672047 14.061 0 14.889 0Z" fill="black"/>
</svg>
