<svg width="71" height="72" viewBox="0 0 71 72" fill="none" xmlns="http://www.w3.org/2000/svg">
<path fill-rule="evenodd" clip-rule="evenodd" d="M27.1475 15.3448C26.9266 15.3455 26.7098 15.2842 26.522 15.1678C26.1761 14.9516 25.9664 14.5723 25.9672 14.1645V7.08252C25.9684 6.67343 26.1814 6.29414 26.5301 6.08014C26.8787 5.86614 27.3134 5.84793 27.6787 6.03203L34.7607 9.57301C35.1548 9.77496 35.4028 10.1806 35.4028 10.6235C35.4028 11.0664 35.1548 11.472 34.7607 11.674L27.6787 15.215C27.5142 15.2992 27.3323 15.3437 27.1475 15.3448ZM31.5856 10.6235L28.3279 8.99465V12.2524L31.5856 10.6235Z" fill="black"/>
<path fill-rule="evenodd" clip-rule="evenodd" d="M29.5082 21.2464C35.3751 21.2464 40.1311 16.4903 40.1311 10.6234C40.1311 4.75655 35.3751 0.000488281 29.5082 0.000488281C23.6413 0.000488281 18.8852 4.75655 18.8852 10.6234C18.8852 16.4903 23.6413 21.2464 29.5082 21.2464ZM29.5082 2.36114C34.0713 2.36114 37.7705 6.0603 37.7705 10.6234C37.7705 15.1866 34.0713 18.8857 29.5082 18.8857C24.9451 18.8857 21.2459 15.1866 21.2459 10.6234C21.2459 6.0603 24.9451 2.36114 29.5082 2.36114Z" fill="black"/>
<path d="M53.1148 1.18091H67.2787C69.2343 1.18091 70.8197 2.76626 70.8197 4.72189V18.8858C70.8197 20.8415 69.2343 22.4268 67.2787 22.4268H53.1148C51.1591 22.4268 49.5738 20.8415 49.5738 18.8858V11.8039C49.5738 11.152 50.1022 10.6235 50.7541 10.6235C51.406 10.6235 51.9344 11.152 51.9344 11.8039V18.8858C51.9344 19.5377 52.4629 20.0662 53.1148 20.0662H67.2787C67.9306 20.0662 68.459 19.5377 68.459 18.8858V4.72189C68.459 4.07001 67.9306 3.54156 67.2787 3.54156H53.1148C52.4629 3.54156 51.9344 4.07001 51.9344 4.72189V7.08255C51.9344 7.73442 51.406 8.26288 50.7541 8.26288C50.1022 8.26288 49.5738 7.73442 49.5738 7.08255V4.72189C49.5738 2.76626 51.1591 1.18091 53.1148 1.18091Z" fill="black"/>
<path d="M61.377 8.26276H63.7377C64.3896 8.26276 64.918 7.7343 64.918 7.08243C64.918 6.43055 64.3896 5.9021 63.7377 5.9021H61.377C59.4214 5.9021 57.8361 7.48745 57.8361 9.44308V10.6234H56.6557C56.0039 10.6234 55.4754 11.1519 55.4754 11.8037C55.4754 12.4556 56.0039 12.9841 56.6557 12.9841H57.8361V16.5251C57.8361 17.1769 58.3645 17.7054 59.0164 17.7054C59.6683 17.7054 60.1967 17.1769 60.1967 16.5251V12.9841H61.377C62.0289 12.9841 62.5574 12.4556 62.5574 11.8037C62.5574 11.1519 62.0289 10.6234 61.377 10.6234H60.1967V9.44308C60.1967 8.79121 60.7252 8.26276 61.377 8.26276Z" fill="black"/>
<path fill-rule="evenodd" clip-rule="evenodd" d="M38.9508 50.9906V62.5578H41.3115C41.9634 62.5578 42.4918 63.0862 42.4918 63.7381V66.0988C42.4918 69.3582 39.8495 72.0004 36.5902 72.0004H5.90164C2.64225 72.0004 0 69.3582 0 66.0988V63.7381C0 63.0862 0.528451 62.5578 1.18033 62.5578H3.54098V37.7709C3.54098 37.119 4.06943 36.5906 4.72131 36.5906H15.722C16.3738 36.5906 16.9023 37.119 16.9023 37.7709C16.9023 38.4228 16.3738 38.9512 15.722 38.9512H5.90164V62.5578H36.5902V50.9906C36.5902 50.3387 37.1186 49.8102 37.7705 49.8102C38.4224 49.8102 38.9508 50.3387 38.9508 50.9906ZM36.5902 69.6398C38.5458 69.6398 40.1311 68.0544 40.1311 66.0988V64.9184H2.36066V66.0988C2.36066 68.0544 3.94601 69.6398 5.90164 69.6398H8.26229V68.4594C8.26229 67.8076 8.79075 67.2791 9.44262 67.2791C10.0945 67.2791 10.623 67.8076 10.623 68.4594V69.6398H31.8689V68.4594C31.8689 67.8076 32.3973 67.2791 33.0492 67.2791C33.7011 67.2791 34.2295 67.8076 34.2295 68.4594V69.6398H36.5902Z" fill="black"/>
<path fill-rule="evenodd" clip-rule="evenodd" d="M60.1967 53.1152C57.5892 53.1152 55.4754 51.0014 55.4754 48.3939C55.4754 45.7864 57.5892 43.6726 60.1967 43.6726C62.8042 43.6726 64.918 45.7864 64.918 48.3939C64.918 51.0014 62.8042 53.1152 60.1967 53.1152ZM60.1967 50.7546C61.5005 50.7546 62.5574 49.6977 62.5574 48.3939C62.5574 47.0902 61.5005 46.0333 60.1967 46.0333C58.893 46.0333 57.8361 47.0902 57.8361 48.3939C57.8361 49.6977 58.893 50.7546 60.1967 50.7546Z" fill="black"/>
<path d="M53.1148 37.771H67.2787C69.2343 37.771 70.8197 39.3563 70.8197 41.312V48.3939C70.8197 49.0458 70.2912 49.5743 69.6393 49.5743C68.9875 49.5743 68.459 49.0458 68.459 48.3939V41.312C68.459 40.6601 67.9306 40.1317 67.2787 40.1317H53.1148C52.4629 40.1317 51.9344 40.6601 51.9344 41.312V55.4759C51.9344 56.1278 52.4629 56.6562 53.1148 56.6562H67.2787C67.9306 56.6562 68.459 56.1278 68.459 55.4759V53.1153C68.459 52.4634 68.9875 51.9349 69.6393 51.9349C70.2912 51.9349 70.8197 52.4634 70.8197 53.1153V55.4759C70.8197 57.4315 69.2343 59.0169 67.2787 59.0169H53.1148C51.1591 59.0169 49.5738 57.4315 49.5738 55.4759V41.312C49.5738 39.3563 51.1591 37.771 53.1148 37.771Z" fill="black"/>
<path d="M41.3115 25.9678C41.683 25.9678 42.0328 25.7929 42.2557 25.4956L45.7967 20.7743C46.1878 20.2528 46.0822 19.513 45.5607 19.1219C45.0392 18.7308 44.2993 18.8364 43.9082 19.3579L40.3672 24.0793C39.9761 24.6008 40.0818 25.3406 40.6033 25.7317C40.8076 25.8849 41.0561 25.9678 41.3115 25.9678Z" fill="black"/>
<path d="M44.8525 30.6891C44.4809 30.6891 44.1311 30.5141 43.9082 30.2169C43.5171 29.6954 43.6228 28.9556 44.1443 28.5645L48.8656 25.0235C49.3871 24.6324 50.1269 24.7381 50.518 25.2596C50.9092 25.7811 50.8035 26.5209 50.282 26.912L45.5607 30.453C45.3563 30.6062 45.1078 30.6891 44.8525 30.6891Z" fill="black"/>
<path d="M55.4754 32.8136C55.4187 32.4974 55.2356 32.218 54.9683 32.0398C54.701 31.8616 54.3727 31.8001 54.059 31.8693L48.1574 33.0497C47.5055 33.1149 47.0299 33.6962 47.0951 34.348C47.1603 34.9999 47.7416 35.4755 48.3934 35.4103H48.6295L54.5312 34.23C54.8473 34.1733 55.1268 33.9902 55.305 33.7229C55.4831 33.4556 55.5447 33.1273 55.4754 32.8136Z" fill="black"/>
<path d="M10.623 16.5251H8.2623C7.61042 16.5251 7.08197 17.0536 7.08197 17.7055C7.08197 18.3574 7.61042 18.8858 8.2623 18.8858H10.623C11.2748 18.8858 11.8033 18.3574 11.8033 17.7055C11.8033 17.0536 11.2748 16.5251 10.623 16.5251Z" fill="black"/>
<path d="M5.90164 21.2463H10.623C11.2748 21.2463 11.8033 21.7748 11.8033 22.4267C11.8033 23.0785 11.2748 23.607 10.623 23.607H5.90164C5.24976 23.607 4.72131 23.0785 4.72131 22.4267C4.72131 21.7748 5.24976 21.2463 5.90164 21.2463Z" fill="black"/>
<path d="M10.623 25.9678H5.90164C5.24976 25.9678 4.72131 26.4962 4.72131 27.1481C4.72131 27.8 5.24976 28.3284 5.90164 28.3284H10.623C11.2748 28.3284 11.8033 27.8 11.8033 27.1481C11.8033 26.4962 11.2748 25.9678 10.623 25.9678Z" fill="black"/>
<path fill-rule="evenodd" clip-rule="evenodd" d="M1.18033 33.0496H15.3443C15.9961 33.0496 16.5246 32.5212 16.5246 31.8693V12.984C16.5246 12.3322 15.9961 11.8037 15.3443 11.8037H1.18033C0.528451 11.8037 0 12.3322 0 12.984V31.8693C0 32.5212 0.528451 33.0496 1.18033 33.0496ZM2.36066 14.1644H14.1639V30.689H2.36066V14.1644Z" fill="black"/>
<path fill-rule="evenodd" clip-rule="evenodd" d="M39.2482 32.1014C39.6714 32.1023 40.0619 32.3288 40.2728 32.6956L46.1508 42.8937C46.3195 43.1927 46.3497 43.5503 46.2334 43.8733C46.1168 44.2003 45.862 44.4594 45.537 44.5815L27.8321 51.2268L29.9803 54.9684C30.4504 55.7822 30.5777 56.7495 30.3342 57.6572C30.0907 58.5649 29.4963 59.3386 28.682 59.8078C26.9899 60.7787 24.8312 60.1982 23.8544 58.5094L21.4938 54.4137L20.4669 55.0038C19.7509 55.4231 18.9359 55.6431 18.1062 55.6412C17.6874 55.6444 17.2702 55.5888 16.8669 55.476C16.0814 55.2579 15.3683 54.8342 14.8013 54.2484L13.621 54.9212C13.0812 55.2282 12.4714 55.3908 11.8505 55.3933C11.5398 55.3946 11.2302 55.3549 10.9298 55.2753C9.54414 54.9053 8.5185 53.7359 8.33233 52.3138C8.14616 50.8917 8.83624 49.4977 10.08 48.7835L11.2603 48.1107C10.6839 46.0419 11.5764 43.8447 13.4321 42.7638L18.4603 39.8602L34.9849 26.2393C35.2549 26.0174 35.6094 25.9267 35.9528 25.9914C36.2943 26.0514 36.5921 26.2586 36.7672 26.5579L37.9475 28.5999C38.2735 29.167 38.0779 29.891 37.5108 30.217C36.9437 30.5429 36.2197 30.3474 35.8938 29.7802L35.4098 28.9422L20.5967 41.1586L23.642 46.4229C23.8532 46.7888 23.8528 47.2397 23.6408 47.6052C23.4288 47.9707 23.0376 48.195 22.6151 48.1933C22.1917 48.195 21.7999 47.9698 21.5882 47.6032L18.6374 42.4924L14.5534 44.853C13.4798 45.4935 13.0916 46.8599 13.6682 47.9691L16.0289 52.053C16.3411 52.5933 16.8546 52.988 17.457 53.1507C18.0627 53.3135 18.7082 53.2285 19.2511 52.9147L24.362 49.9638H24.539L43.4243 42.8819L38.219 33.876C38.0082 33.5091 38.0091 33.0576 38.2214 32.6916C38.4337 32.3255 38.8251 32.1006 39.2482 32.1014ZM11.4964 52.9855C11.7992 53.0669 12.122 53.0244 12.3934 52.8674L13.4203 52.2773L12.24 50.2353L11.2131 50.8255C10.9395 50.9818 10.7397 51.241 10.6584 51.5455C10.577 51.8483 10.6195 52.1711 10.7764 52.4425C10.9351 52.7117 11.194 52.9069 11.4964 52.9855ZM27.9266 56.1724C28.0835 56.4438 28.126 56.7666 28.0446 57.0694C27.9604 57.3695 27.761 57.624 27.4898 57.7776C26.9287 58.0999 26.2127 57.9104 25.8846 57.3527L23.5239 53.257L25.4833 52.1356H25.5777L27.9266 56.1724Z" fill="black"/>
</svg>
